<mxfile host="app.diagrams.net" agent="Mozilla/5.0 (Windows NT 10.0; Win64; x64) AppleWebKit/537.36 (KHTML, like Gecko) Chrome/129.0.0.0 Safari/537.36" version="24.7.17" pages="4">
  <diagram name="view" id="2YBvvXClWsGukQMizWep">
    <mxGraphModel dx="1900" dy="1146" grid="0" gridSize="10" guides="1" tooltips="1" connect="1" arrows="1" fold="1" page="0" pageScale="1" pageWidth="850" pageHeight="1100" math="0" shadow="0">
      <root>
        <mxCell id="0" />
        <mxCell id="1" parent="0" />
        <mxCell id="gqVlqXFgRHxhgRMLqXmn-1" value="Amin&lt;div&gt;&lt;br&gt;&lt;/div&gt;" style="shape=umlActor;verticalLabelPosition=bottom;verticalAlign=top;html=1;outlineConnect=0;" vertex="1" parent="1">
          <mxGeometry x="-66" y="-127" width="30" height="60" as="geometry" />
        </mxCell>
        <mxCell id="gqVlqXFgRHxhgRMLqXmn-2" value="view" style="rounded=0;whiteSpace=wrap;html=1;" vertex="1" parent="1">
          <mxGeometry x="66" y="-111" width="62" height="33" as="geometry" />
        </mxCell>
        <mxCell id="gqVlqXFgRHxhgRMLqXmn-5" value="UserController" style="rounded=0;whiteSpace=wrap;html=1;" vertex="1" parent="1">
          <mxGeometry x="237" y="-111" width="112" height="33" as="geometry" />
        </mxCell>
        <mxCell id="gqVlqXFgRHxhgRMLqXmn-7" value="UserService&lt;span style=&quot;color: rgba(0, 0, 0, 0); font-family: monospace; font-size: 0px; text-align: start; text-wrap: nowrap; background-color: rgb(251, 251, 251);&quot;&gt;%3CmxGraphModel%3E%3Croot%3E%3CmxCell%20id%3D%220%22%2F%3E%3CmxCell%20id%3D%221%22%20parent%3D%220%22%2F%3E%3CmxCell%20id%3D%222%22%20value%3D%22EmployeeController%22%20style%3D%22rounded%3D0%3BwhiteSpace%3Dwrap%3Bhtml%3D1%3B%22%20vertex%3D%221%22%20parent%3D%221%22%3E%3CmxGeometry%20x%3D%22300%22%20y%3D%2233%22%20width%3D%22112%22%20height%3D%2233%22%20as%3D%22geometry%22%2F%3E%3C%2FmxCell%3E%3C%2Froot%3E%3C%2FmxGraphModel%3E&lt;/span&gt;" style="rounded=0;whiteSpace=wrap;html=1;" vertex="1" parent="1">
          <mxGeometry x="437" y="-111" width="112" height="33" as="geometry" />
        </mxCell>
        <mxCell id="gqVlqXFgRHxhgRMLqXmn-8" value="UserRepository" style="rounded=0;whiteSpace=wrap;html=1;" vertex="1" parent="1">
          <mxGeometry x="622" y="-111" width="119" height="33" as="geometry" />
        </mxCell>
        <mxCell id="gqVlqXFgRHxhgRMLqXmn-9" value="Database" style="rounded=0;whiteSpace=wrap;html=1;" vertex="1" parent="1">
          <mxGeometry x="807" y="-111" width="112" height="33" as="geometry" />
        </mxCell>
        <mxCell id="gqVlqXFgRHxhgRMLqXmn-10" value="" style="endArrow=none;dashed=1;html=1;dashPattern=1 3;strokeWidth=2;rounded=0;" edge="1" parent="1" source="gqVlqXFgRHxhgRMLqXmn-1">
          <mxGeometry width="50" height="50" relative="1" as="geometry">
            <mxPoint x="430" y="101" as="sourcePoint" />
            <mxPoint x="-58" y="533" as="targetPoint" />
          </mxGeometry>
        </mxCell>
        <mxCell id="gqVlqXFgRHxhgRMLqXmn-37" value="Có dữ liệu" style="edgeLabel;html=1;align=center;verticalAlign=middle;resizable=0;points=[];" vertex="1" connectable="0" parent="gqVlqXFgRHxhgRMLqXmn-10">
          <mxGeometry x="0.2108" y="6" relative="1" as="geometry">
            <mxPoint as="offset" />
          </mxGeometry>
        </mxCell>
        <mxCell id="gqVlqXFgRHxhgRMLqXmn-11" value="" style="html=1;points=[[0,0,0,0,5],[0,1,0,0,-5],[1,0,0,0,5],[1,1,0,0,-5]];perimeter=orthogonalPerimeter;outlineConnect=0;targetShapes=umlLifeline;portConstraint=eastwest;newEdgeStyle={&quot;curved&quot;:0,&quot;rounded&quot;:0};" vertex="1" parent="1">
          <mxGeometry x="84" y="-15" width="10" height="516" as="geometry" />
        </mxCell>
        <mxCell id="gqVlqXFgRHxhgRMLqXmn-12" value="" style="endArrow=none;dashed=1;html=1;dashPattern=1 3;strokeWidth=2;rounded=0;" edge="1" parent="1">
          <mxGeometry width="50" height="50" relative="1" as="geometry">
            <mxPoint x="89" y="-10" as="sourcePoint" />
            <mxPoint x="89" y="-69" as="targetPoint" />
          </mxGeometry>
        </mxCell>
        <mxCell id="gqVlqXFgRHxhgRMLqXmn-14" value="" style="html=1;points=[[0,0,0,0,5],[0,1,0,0,-5],[1,0,0,0,5],[1,1,0,0,-5]];perimeter=orthogonalPerimeter;outlineConnect=0;targetShapes=umlLifeline;portConstraint=eastwest;newEdgeStyle={&quot;curved&quot;:0,&quot;rounded&quot;:0};" vertex="1" parent="1">
          <mxGeometry x="283" y="14" width="10" height="392" as="geometry" />
        </mxCell>
        <mxCell id="gqVlqXFgRHxhgRMLqXmn-15" value="" style="endArrow=none;dashed=1;html=1;dashPattern=1 3;strokeWidth=2;rounded=0;exitX=0;exitY=0;exitDx=0;exitDy=5;exitPerimeter=0;entryX=0.389;entryY=1.087;entryDx=0;entryDy=0;entryPerimeter=0;" edge="1" parent="1" source="gqVlqXFgRHxhgRMLqXmn-14" target="gqVlqXFgRHxhgRMLqXmn-5">
          <mxGeometry width="50" height="50" relative="1" as="geometry">
            <mxPoint x="99" as="sourcePoint" />
            <mxPoint x="99" y="-59" as="targetPoint" />
          </mxGeometry>
        </mxCell>
        <mxCell id="gqVlqXFgRHxhgRMLqXmn-16" value="" style="html=1;points=[[0,0,0,0,5],[0,1,0,0,-5],[1,0,0,0,5],[1,1,0,0,-5]];perimeter=orthogonalPerimeter;outlineConnect=0;targetShapes=umlLifeline;portConstraint=eastwest;newEdgeStyle={&quot;curved&quot;:0,&quot;rounded&quot;:0};" vertex="1" parent="1">
          <mxGeometry x="496" y="40" width="10" height="361" as="geometry" />
        </mxCell>
        <mxCell id="gqVlqXFgRHxhgRMLqXmn-17" value="" style="html=1;points=[[0,0,0,0,5],[0,1,0,0,-5],[1,0,0,0,5],[1,1,0,0,-5]];perimeter=orthogonalPerimeter;outlineConnect=0;targetShapes=umlLifeline;portConstraint=eastwest;newEdgeStyle={&quot;curved&quot;:0,&quot;rounded&quot;:0};" vertex="1" parent="1">
          <mxGeometry x="689" y="201" width="10" height="172" as="geometry" />
        </mxCell>
        <mxCell id="gqVlqXFgRHxhgRMLqXmn-18" value="" style="html=1;points=[[0,0,0,0,5],[0,1,0,0,-5],[1,0,0,0,5],[1,1,0,0,-5]];perimeter=orthogonalPerimeter;outlineConnect=0;targetShapes=umlLifeline;portConstraint=eastwest;newEdgeStyle={&quot;curved&quot;:0,&quot;rounded&quot;:0};" vertex="1" parent="1">
          <mxGeometry x="864" y="222" width="10" height="127" as="geometry" />
        </mxCell>
        <mxCell id="gqVlqXFgRHxhgRMLqXmn-19" value="" style="endArrow=classic;html=1;rounded=0;entryX=0;entryY=0;entryDx=0;entryDy=5;entryPerimeter=0;" edge="1" parent="1" target="gqVlqXFgRHxhgRMLqXmn-11">
          <mxGeometry width="50" height="50" relative="1" as="geometry">
            <mxPoint x="-50" y="-10" as="sourcePoint" />
            <mxPoint x="480" y="100" as="targetPoint" />
          </mxGeometry>
        </mxCell>
        <mxCell id="gqVlqXFgRHxhgRMLqXmn-20" value="1.Admin click view&lt;div&gt;&amp;nbsp;&lt;span style=&quot;text-wrap: wrap; background-color: initial;&quot;&gt;User&lt;/span&gt;&lt;/div&gt;" style="text;html=1;align=center;verticalAlign=middle;resizable=0;points=[];autosize=1;strokeColor=none;fillColor=none;" vertex="1" parent="1">
          <mxGeometry x="-41" y="-49" width="116" height="41" as="geometry" />
        </mxCell>
        <mxCell id="gqVlqXFgRHxhgRMLqXmn-24" value="" style="endArrow=classic;html=1;rounded=0;entryX=0;entryY=0;entryDx=0;entryDy=5;entryPerimeter=0;" edge="1" parent="1" target="gqVlqXFgRHxhgRMLqXmn-14">
          <mxGeometry width="50" height="50" relative="1" as="geometry">
            <mxPoint x="98" y="20" as="sourcePoint" />
            <mxPoint x="480" y="100" as="targetPoint" />
          </mxGeometry>
        </mxCell>
        <mxCell id="gqVlqXFgRHxhgRMLqXmn-26" value="2.findAll()" style="text;html=1;align=center;verticalAlign=middle;resizable=0;points=[];autosize=1;strokeColor=none;fillColor=none;" vertex="1" parent="1">
          <mxGeometry x="154" y="-19" width="69" height="26" as="geometry" />
        </mxCell>
        <mxCell id="gqVlqXFgRHxhgRMLqXmn-28" value="3.findAll()" style="text;html=1;align=center;verticalAlign=middle;resizable=0;points=[];autosize=1;strokeColor=none;fillColor=none;" vertex="1" parent="1">
          <mxGeometry x="374" y="20" width="69" height="26" as="geometry" />
        </mxCell>
        <mxCell id="gqVlqXFgRHxhgRMLqXmn-29" value="" style="endArrow=classic;html=1;rounded=0;" edge="1" parent="1" target="gqVlqXFgRHxhgRMLqXmn-16">
          <mxGeometry width="50" height="50" relative="1" as="geometry">
            <mxPoint x="297" y="41" as="sourcePoint" />
            <mxPoint x="482" y="40" as="targetPoint" />
          </mxGeometry>
        </mxCell>
        <mxCell id="gqVlqXFgRHxhgRMLqXmn-30" value="kiểm tra dữ liệu" style="shape=umlFrame;whiteSpace=wrap;html=1;pointerEvents=0;" vertex="1" parent="1">
          <mxGeometry x="-134" y="102" width="1145" height="321" as="geometry" />
        </mxCell>
        <mxCell id="gqVlqXFgRHxhgRMLqXmn-31" value="" style="endArrow=none;dashed=1;html=1;dashPattern=1 3;strokeWidth=2;rounded=0;" edge="1" parent="1">
          <mxGeometry width="50" height="50" relative="1" as="geometry">
            <mxPoint x="-196" y="185" as="sourcePoint" />
            <mxPoint x="1091" y="185" as="targetPoint" />
          </mxGeometry>
        </mxCell>
        <mxCell id="gqVlqXFgRHxhgRMLqXmn-32" value="" style="endArrow=open;endSize=12;dashed=1;html=1;rounded=0;entryX=1;entryY=0.269;entryDx=0;entryDy=0;entryPerimeter=0;" edge="1" parent="1" source="gqVlqXFgRHxhgRMLqXmn-16" target="gqVlqXFgRHxhgRMLqXmn-14">
          <mxGeometry width="160" relative="1" as="geometry">
            <mxPoint x="391" y="134" as="sourcePoint" />
            <mxPoint x="315" y="134" as="targetPoint" />
          </mxGeometry>
        </mxCell>
        <mxCell id="gqVlqXFgRHxhgRMLqXmn-33" value="4.1.return view null" style="text;html=1;align=center;verticalAlign=middle;resizable=0;points=[];autosize=1;strokeColor=none;fillColor=none;" vertex="1" parent="1">
          <mxGeometry x="343" y="136" width="119" height="26" as="geometry" />
        </mxCell>
        <mxCell id="gqVlqXFgRHxhgRMLqXmn-34" value="" style="endArrow=open;endSize=12;dashed=1;html=1;rounded=0;" edge="1" parent="1">
          <mxGeometry width="160" relative="1" as="geometry">
            <mxPoint x="283" y="158.00000000000023" as="sourcePoint" />
            <mxPoint x="94" y="158.00000000000023" as="targetPoint" />
          </mxGeometry>
        </mxCell>
        <mxCell id="gqVlqXFgRHxhgRMLqXmn-35" value="4.2.return view null" style="text;html=1;align=center;verticalAlign=middle;resizable=0;points=[];autosize=1;strokeColor=none;fillColor=none;" vertex="1" parent="1">
          <mxGeometry x="138" y="129" width="119" height="26" as="geometry" />
        </mxCell>
        <mxCell id="gqVlqXFgRHxhgRMLqXmn-36" value="dữ liệu rỗng" style="text;html=1;align=center;verticalAlign=middle;resizable=0;points=[];autosize=1;strokeColor=none;fillColor=none;" vertex="1" parent="1">
          <mxGeometry x="-92" y="144" width="82" height="26" as="geometry" />
        </mxCell>
        <mxCell id="gqVlqXFgRHxhgRMLqXmn-38" value="" style="endArrow=classic;html=1;rounded=0;" edge="1" parent="1">
          <mxGeometry width="50" height="50" relative="1" as="geometry">
            <mxPoint x="502" y="216" as="sourcePoint" />
            <mxPoint x="695" y="216" as="targetPoint" />
          </mxGeometry>
        </mxCell>
        <mxCell id="gqVlqXFgRHxhgRMLqXmn-39" value="5.findAll()" style="text;html=1;align=center;verticalAlign=middle;resizable=0;points=[];autosize=1;strokeColor=none;fillColor=none;" vertex="1" parent="1">
          <mxGeometry x="560" y="192" width="69" height="26" as="geometry" />
        </mxCell>
        <mxCell id="gqVlqXFgRHxhgRMLqXmn-40" value="6.excuteQuery()" style="text;html=1;align=center;verticalAlign=middle;resizable=0;points=[];autosize=1;strokeColor=none;fillColor=none;" vertex="1" parent="1">
          <mxGeometry x="736" y="218" width="104" height="26" as="geometry" />
        </mxCell>
        <mxCell id="gqVlqXFgRHxhgRMLqXmn-42" value="" style="endArrow=classic;html=1;rounded=0;" edge="1" parent="1">
          <mxGeometry width="50" height="50" relative="1" as="geometry">
            <mxPoint x="702" y="244" as="sourcePoint" />
            <mxPoint x="861" y="244" as="targetPoint" />
          </mxGeometry>
        </mxCell>
        <mxCell id="gqVlqXFgRHxhgRMLqXmn-44" value="" style="endArrow=open;endSize=12;dashed=1;html=1;rounded=0;" edge="1" parent="1">
          <mxGeometry width="160" relative="1" as="geometry">
            <mxPoint x="864" y="302.0000000000002" as="sourcePoint" />
            <mxPoint x="700" y="302" as="targetPoint" />
          </mxGeometry>
        </mxCell>
        <mxCell id="gqVlqXFgRHxhgRMLqXmn-45" value="7.return result" style="text;html=1;align=center;verticalAlign=middle;resizable=0;points=[];autosize=1;strokeColor=none;fillColor=none;" vertex="1" parent="1">
          <mxGeometry x="742" y="273" width="92" height="26" as="geometry" />
        </mxCell>
        <mxCell id="gqVlqXFgRHxhgRMLqXmn-46" value="" style="endArrow=open;endSize=12;dashed=1;html=1;rounded=0;" edge="1" parent="1" source="gqVlqXFgRHxhgRMLqXmn-17">
          <mxGeometry width="160" relative="1" as="geometry">
            <mxPoint x="670" y="323.0000000000002" as="sourcePoint" />
            <mxPoint x="506" y="323" as="targetPoint" />
          </mxGeometry>
        </mxCell>
        <mxCell id="gqVlqXFgRHxhgRMLqXmn-47" value="8.return result" style="text;html=1;align=center;verticalAlign=middle;resizable=0;points=[];autosize=1;strokeColor=none;fillColor=none;" vertex="1" parent="1">
          <mxGeometry x="552" y="296" width="92" height="26" as="geometry" />
        </mxCell>
        <mxCell id="gqVlqXFgRHxhgRMLqXmn-48" value="" style="endArrow=open;endSize=12;dashed=1;html=1;rounded=0;" edge="1" parent="1" target="gqVlqXFgRHxhgRMLqXmn-14">
          <mxGeometry width="160" relative="1" as="geometry">
            <mxPoint x="491" y="339" as="sourcePoint" />
            <mxPoint x="308" y="339" as="targetPoint" />
          </mxGeometry>
        </mxCell>
        <mxCell id="gqVlqXFgRHxhgRMLqXmn-49" value="9.return result" style="text;html=1;align=center;verticalAlign=middle;resizable=0;points=[];autosize=1;strokeColor=none;fillColor=none;" vertex="1" parent="1">
          <mxGeometry x="340" y="313" width="92" height="26" as="geometry" />
        </mxCell>
        <mxCell id="gqVlqXFgRHxhgRMLqXmn-50" value="" style="endArrow=open;endSize=12;dashed=1;html=1;rounded=0;" edge="1" parent="1">
          <mxGeometry width="160" relative="1" as="geometry">
            <mxPoint x="282" y="363" as="sourcePoint" />
            <mxPoint x="91" y="363" as="targetPoint" />
          </mxGeometry>
        </mxCell>
        <mxCell id="gqVlqXFgRHxhgRMLqXmn-51" value="10.return data&amp;nbsp;" style="text;html=1;align=center;verticalAlign=middle;resizable=0;points=[];autosize=1;strokeColor=none;fillColor=none;" vertex="1" parent="1">
          <mxGeometry x="130" y="339" width="96" height="26" as="geometry" />
        </mxCell>
        <mxCell id="gqVlqXFgRHxhgRMLqXmn-52" value="" style="endArrow=open;endSize=12;dashed=1;html=1;rounded=0;" edge="1" parent="1">
          <mxGeometry width="160" relative="1" as="geometry">
            <mxPoint x="84" y="469" as="sourcePoint" />
            <mxPoint x="-57" y="469" as="targetPoint" />
          </mxGeometry>
        </mxCell>
        <mxCell id="gqVlqXFgRHxhgRMLqXmn-53" value="11.return data&lt;div&gt;&amp;nbsp;in view&amp;nbsp;&lt;/div&gt;" style="text;html=1;align=center;verticalAlign=middle;resizable=0;points=[];autosize=1;strokeColor=none;fillColor=none;" vertex="1" parent="1">
          <mxGeometry x="-36" y="429" width="92" height="41" as="geometry" />
        </mxCell>
        <mxCell id="gqVlqXFgRHxhgRMLqXmn-54" value="" style="endArrow=none;dashed=1;html=1;dashPattern=1 3;strokeWidth=2;rounded=0;exitX=0;exitY=0;exitDx=0;exitDy=5;exitPerimeter=0;entryX=0.5;entryY=1;entryDx=0;entryDy=0;" edge="1" parent="1" source="gqVlqXFgRHxhgRMLqXmn-16" target="gqVlqXFgRHxhgRMLqXmn-7">
          <mxGeometry width="50" height="50" relative="1" as="geometry">
            <mxPoint x="293" y="29" as="sourcePoint" />
            <mxPoint x="291" y="-65" as="targetPoint" />
          </mxGeometry>
        </mxCell>
        <mxCell id="gqVlqXFgRHxhgRMLqXmn-55" value="" style="endArrow=none;dashed=1;html=1;dashPattern=1 3;strokeWidth=2;rounded=0;exitX=0.643;exitY=0.035;exitDx=0;exitDy=0;exitPerimeter=0;entryX=0.598;entryY=0.983;entryDx=0;entryDy=0;entryPerimeter=0;" edge="1" parent="1" source="gqVlqXFgRHxhgRMLqXmn-17" target="gqVlqXFgRHxhgRMLqXmn-8">
          <mxGeometry width="50" height="50" relative="1" as="geometry">
            <mxPoint x="303" y="39" as="sourcePoint" />
            <mxPoint x="301" y="-55" as="targetPoint" />
          </mxGeometry>
        </mxCell>
        <mxCell id="gqVlqXFgRHxhgRMLqXmn-56" value="" style="endArrow=none;dashed=1;html=1;dashPattern=1 3;strokeWidth=2;rounded=0;exitX=0;exitY=0;exitDx=0;exitDy=5;exitPerimeter=0;entryX=0.5;entryY=1;entryDx=0;entryDy=0;" edge="1" parent="1" source="gqVlqXFgRHxhgRMLqXmn-18" target="gqVlqXFgRHxhgRMLqXmn-9">
          <mxGeometry width="50" height="50" relative="1" as="geometry">
            <mxPoint x="705" y="217" as="sourcePoint" />
            <mxPoint x="703" y="-69" as="targetPoint" />
          </mxGeometry>
        </mxCell>
        <mxCell id="e1gzUS2gh8a8IZtWSWpO-1" value="" style="endArrow=none;dashed=1;html=1;dashPattern=1 3;strokeWidth=2;rounded=0;exitX=0;exitY=1;exitDx=0;exitDy=-5;exitPerimeter=0;" edge="1" parent="1" source="gqVlqXFgRHxhgRMLqXmn-11">
          <mxGeometry width="50" height="50" relative="1" as="geometry">
            <mxPoint x="430" y="329" as="sourcePoint" />
            <mxPoint x="84" y="607" as="targetPoint" />
          </mxGeometry>
        </mxCell>
        <mxCell id="e1gzUS2gh8a8IZtWSWpO-2" value="" style="endArrow=none;dashed=1;html=1;dashPattern=1 3;strokeWidth=2;rounded=0;" edge="1" parent="1" source="gqVlqXFgRHxhgRMLqXmn-14">
          <mxGeometry width="50" height="50" relative="1" as="geometry">
            <mxPoint x="94" y="506" as="sourcePoint" />
            <mxPoint x="282" y="613" as="targetPoint" />
          </mxGeometry>
        </mxCell>
        <mxCell id="e1gzUS2gh8a8IZtWSWpO-3" value="" style="endArrow=none;dashed=1;html=1;dashPattern=1 3;strokeWidth=2;rounded=0;exitX=1;exitY=1;exitDx=0;exitDy=-5;exitPerimeter=0;" edge="1" parent="1" source="gqVlqXFgRHxhgRMLqXmn-16">
          <mxGeometry width="50" height="50" relative="1" as="geometry">
            <mxPoint x="104" y="516" as="sourcePoint" />
            <mxPoint x="501" y="627" as="targetPoint" />
          </mxGeometry>
        </mxCell>
        <mxCell id="e1gzUS2gh8a8IZtWSWpO-4" value="" style="endArrow=none;dashed=1;html=1;dashPattern=1 3;strokeWidth=2;rounded=0;exitX=0;exitY=1;exitDx=0;exitDy=-5;exitPerimeter=0;" edge="1" parent="1" source="gqVlqXFgRHxhgRMLqXmn-17">
          <mxGeometry width="50" height="50" relative="1" as="geometry">
            <mxPoint x="114" y="526" as="sourcePoint" />
            <mxPoint x="689" y="587" as="targetPoint" />
          </mxGeometry>
        </mxCell>
        <mxCell id="e1gzUS2gh8a8IZtWSWpO-5" value="" style="endArrow=none;dashed=1;html=1;dashPattern=1 3;strokeWidth=2;rounded=0;exitX=0;exitY=1;exitDx=0;exitDy=-5;exitPerimeter=0;" edge="1" parent="1" source="gqVlqXFgRHxhgRMLqXmn-18">
          <mxGeometry width="50" height="50" relative="1" as="geometry">
            <mxPoint x="124" y="536" as="sourcePoint" />
            <mxPoint x="864" y="580" as="targetPoint" />
          </mxGeometry>
        </mxCell>
      </root>
    </mxGraphModel>
  </diagram>
  <diagram id="0IBscSE5XY5wANJuoASp" name="update">
    <mxGraphModel dx="1900" dy="1146" grid="0" gridSize="10" guides="1" tooltips="1" connect="1" arrows="1" fold="1" page="0" pageScale="1" pageWidth="1169" pageHeight="827" math="0" shadow="0">
      <root>
        <mxCell id="0" />
        <mxCell id="1" parent="0" />
        <mxCell id="88Pvqz5m6QE8CRse1HJs-1" value="Amin&lt;div&gt;&lt;br&gt;&lt;/div&gt;" style="shape=umlActor;verticalLabelPosition=bottom;verticalAlign=top;html=1;outlineConnect=0;" vertex="1" parent="1">
          <mxGeometry x="-66" y="-127" width="30" height="60" as="geometry" />
        </mxCell>
        <mxCell id="88Pvqz5m6QE8CRse1HJs-2" value="view" style="rounded=0;whiteSpace=wrap;html=1;" vertex="1" parent="1">
          <mxGeometry x="66" y="-111" width="62" height="33" as="geometry" />
        </mxCell>
        <mxCell id="88Pvqz5m6QE8CRse1HJs-3" value="UserController" style="rounded=0;whiteSpace=wrap;html=1;" vertex="1" parent="1">
          <mxGeometry x="237" y="-111" width="112" height="33" as="geometry" />
        </mxCell>
        <mxCell id="88Pvqz5m6QE8CRse1HJs-4" value="UserService&lt;span style=&quot;color: rgba(0, 0, 0, 0); font-family: monospace; font-size: 0px; text-align: start; text-wrap: nowrap; background-color: rgb(251, 251, 251);&quot;&gt;%3CmxGraphModel%3E%3Croot%3E%3CmxCell%20id%3D%220%22%2F%3E%3CmxCell%20id%3D%221%22%20parent%3D%220%22%2F%3E%3CmxCell%20id%3D%222%22%20value%3D%22EmployeeController%22%20style%3D%22rounded%3D0%3BwhiteSpace%3Dwrap%3Bhtml%3D1%3B%22%20vertex%3D%221%22%20parent%3D%221%22%3E%3CmxGeometry%20x%3D%22300%22%20y%3D%2233%22%20width%3D%22112%22%20height%3D%2233%22%20as%3D%22geometry%22%2F%3E%3C%2FmxCell%3E%3C%2Froot%3E%3C%2FmxGraphModel%3E&lt;/span&gt;" style="rounded=0;whiteSpace=wrap;html=1;" vertex="1" parent="1">
          <mxGeometry x="437" y="-111" width="112" height="33" as="geometry" />
        </mxCell>
        <mxCell id="88Pvqz5m6QE8CRse1HJs-5" value="UserRepository" style="rounded=0;whiteSpace=wrap;html=1;" vertex="1" parent="1">
          <mxGeometry x="622" y="-111" width="119" height="33" as="geometry" />
        </mxCell>
        <mxCell id="88Pvqz5m6QE8CRse1HJs-6" value="Database" style="rounded=0;whiteSpace=wrap;html=1;" vertex="1" parent="1">
          <mxGeometry x="807" y="-111" width="112" height="33" as="geometry" />
        </mxCell>
        <mxCell id="88Pvqz5m6QE8CRse1HJs-7" value="" style="endArrow=none;dashed=1;html=1;dashPattern=1 3;strokeWidth=2;rounded=0;" edge="1" parent="1" source="88Pvqz5m6QE8CRse1HJs-1">
          <mxGeometry width="50" height="50" relative="1" as="geometry">
            <mxPoint x="430" y="101" as="sourcePoint" />
            <mxPoint x="-58" y="533" as="targetPoint" />
          </mxGeometry>
        </mxCell>
        <mxCell id="88Pvqz5m6QE8CRse1HJs-8" value="valid info" style="edgeLabel;html=1;align=center;verticalAlign=middle;resizable=0;points=[];" vertex="1" connectable="0" parent="88Pvqz5m6QE8CRse1HJs-7">
          <mxGeometry x="0.2108" y="6" relative="1" as="geometry">
            <mxPoint as="offset" />
          </mxGeometry>
        </mxCell>
        <mxCell id="88Pvqz5m6QE8CRse1HJs-9" value="" style="html=1;points=[[0,0,0,0,5],[0,1,0,0,-5],[1,0,0,0,5],[1,1,0,0,-5]];perimeter=orthogonalPerimeter;outlineConnect=0;targetShapes=umlLifeline;portConstraint=eastwest;newEdgeStyle={&quot;curved&quot;:0,&quot;rounded&quot;:0};" vertex="1" parent="1">
          <mxGeometry x="84" y="-15" width="10" height="516" as="geometry" />
        </mxCell>
        <mxCell id="88Pvqz5m6QE8CRse1HJs-10" value="" style="endArrow=none;dashed=1;html=1;dashPattern=1 3;strokeWidth=2;rounded=0;" edge="1" parent="1">
          <mxGeometry width="50" height="50" relative="1" as="geometry">
            <mxPoint x="89" y="-10" as="sourcePoint" />
            <mxPoint x="89" y="-69" as="targetPoint" />
          </mxGeometry>
        </mxCell>
        <mxCell id="88Pvqz5m6QE8CRse1HJs-11" value="" style="html=1;points=[[0,0,0,0,5],[0,1,0,0,-5],[1,0,0,0,5],[1,1,0,0,-5]];perimeter=orthogonalPerimeter;outlineConnect=0;targetShapes=umlLifeline;portConstraint=eastwest;newEdgeStyle={&quot;curved&quot;:0,&quot;rounded&quot;:0};" vertex="1" parent="1">
          <mxGeometry x="283" y="14" width="10" height="392" as="geometry" />
        </mxCell>
        <mxCell id="88Pvqz5m6QE8CRse1HJs-12" value="" style="endArrow=none;dashed=1;html=1;dashPattern=1 3;strokeWidth=2;rounded=0;exitX=0;exitY=0;exitDx=0;exitDy=5;exitPerimeter=0;entryX=0.389;entryY=1.087;entryDx=0;entryDy=0;entryPerimeter=0;" edge="1" parent="1" source="88Pvqz5m6QE8CRse1HJs-11" target="88Pvqz5m6QE8CRse1HJs-3">
          <mxGeometry width="50" height="50" relative="1" as="geometry">
            <mxPoint x="99" as="sourcePoint" />
            <mxPoint x="99" y="-59" as="targetPoint" />
          </mxGeometry>
        </mxCell>
        <mxCell id="88Pvqz5m6QE8CRse1HJs-13" value="" style="html=1;points=[[0,0,0,0,5],[0,1,0,0,-5],[1,0,0,0,5],[1,1,0,0,-5]];perimeter=orthogonalPerimeter;outlineConnect=0;targetShapes=umlLifeline;portConstraint=eastwest;newEdgeStyle={&quot;curved&quot;:0,&quot;rounded&quot;:0};" vertex="1" parent="1">
          <mxGeometry x="496" y="40" width="10" height="361" as="geometry" />
        </mxCell>
        <mxCell id="88Pvqz5m6QE8CRse1HJs-14" value="" style="html=1;points=[[0,0,0,0,5],[0,1,0,0,-5],[1,0,0,0,5],[1,1,0,0,-5]];perimeter=orthogonalPerimeter;outlineConnect=0;targetShapes=umlLifeline;portConstraint=eastwest;newEdgeStyle={&quot;curved&quot;:0,&quot;rounded&quot;:0};" vertex="1" parent="1">
          <mxGeometry x="689" y="201" width="10" height="172" as="geometry" />
        </mxCell>
        <mxCell id="88Pvqz5m6QE8CRse1HJs-15" value="" style="html=1;points=[[0,0,0,0,5],[0,1,0,0,-5],[1,0,0,0,5],[1,1,0,0,-5]];perimeter=orthogonalPerimeter;outlineConnect=0;targetShapes=umlLifeline;portConstraint=eastwest;newEdgeStyle={&quot;curved&quot;:0,&quot;rounded&quot;:0};" vertex="1" parent="1">
          <mxGeometry x="864" y="222" width="10" height="127" as="geometry" />
        </mxCell>
        <mxCell id="88Pvqz5m6QE8CRse1HJs-16" value="" style="endArrow=classic;html=1;rounded=0;entryX=0;entryY=0;entryDx=0;entryDy=5;entryPerimeter=0;" edge="1" parent="1" target="88Pvqz5m6QE8CRse1HJs-9">
          <mxGeometry width="50" height="50" relative="1" as="geometry">
            <mxPoint x="-50" y="-10" as="sourcePoint" />
            <mxPoint x="480" y="100" as="targetPoint" />
          </mxGeometry>
        </mxCell>
        <mxCell id="88Pvqz5m6QE8CRse1HJs-17" value="1.Admin click update&lt;div&gt;&amp;nbsp;&lt;span style=&quot;text-wrap: wrap; background-color: initial;&quot;&gt;User&lt;/span&gt;&lt;/div&gt;" style="text;html=1;align=center;verticalAlign=middle;resizable=0;points=[];autosize=1;strokeColor=none;fillColor=none;" vertex="1" parent="1">
          <mxGeometry x="-47" y="-49" width="129" height="41" as="geometry" />
        </mxCell>
        <mxCell id="88Pvqz5m6QE8CRse1HJs-18" value="" style="endArrow=classic;html=1;rounded=0;entryX=0;entryY=0;entryDx=0;entryDy=5;entryPerimeter=0;" edge="1" parent="1" target="88Pvqz5m6QE8CRse1HJs-11">
          <mxGeometry width="50" height="50" relative="1" as="geometry">
            <mxPoint x="98" y="20" as="sourcePoint" />
            <mxPoint x="480" y="100" as="targetPoint" />
          </mxGeometry>
        </mxCell>
        <mxCell id="88Pvqz5m6QE8CRse1HJs-19" value="2.save()" style="text;html=1;align=center;verticalAlign=middle;resizable=0;points=[];autosize=1;strokeColor=none;fillColor=none;" vertex="1" parent="1">
          <mxGeometry x="158" y="-19" width="61" height="26" as="geometry" />
        </mxCell>
        <mxCell id="88Pvqz5m6QE8CRse1HJs-20" value="3.save()" style="text;html=1;align=center;verticalAlign=middle;resizable=0;points=[];autosize=1;strokeColor=none;fillColor=none;" vertex="1" parent="1">
          <mxGeometry x="378" y="20" width="61" height="26" as="geometry" />
        </mxCell>
        <mxCell id="88Pvqz5m6QE8CRse1HJs-21" value="" style="endArrow=classic;html=1;rounded=0;" edge="1" parent="1" target="88Pvqz5m6QE8CRse1HJs-13">
          <mxGeometry width="50" height="50" relative="1" as="geometry">
            <mxPoint x="297" y="41" as="sourcePoint" />
            <mxPoint x="482" y="40" as="targetPoint" />
          </mxGeometry>
        </mxCell>
        <mxCell id="88Pvqz5m6QE8CRse1HJs-22" value="alt validate info User" style="shape=umlFrame;whiteSpace=wrap;html=1;pointerEvents=0;width=182;height=37;" vertex="1" parent="1">
          <mxGeometry x="-193" y="102" width="1204" height="321" as="geometry" />
        </mxCell>
        <mxCell id="88Pvqz5m6QE8CRse1HJs-23" value="" style="endArrow=none;dashed=1;html=1;dashPattern=1 3;strokeWidth=2;rounded=0;" edge="1" parent="1">
          <mxGeometry width="50" height="50" relative="1" as="geometry">
            <mxPoint x="-196" y="185" as="sourcePoint" />
            <mxPoint x="1091" y="185" as="targetPoint" />
          </mxGeometry>
        </mxCell>
        <mxCell id="88Pvqz5m6QE8CRse1HJs-24" value="" style="endArrow=open;endSize=12;dashed=1;html=1;rounded=0;entryX=1;entryY=0.269;entryDx=0;entryDy=0;entryPerimeter=0;" edge="1" parent="1" source="88Pvqz5m6QE8CRse1HJs-13" target="88Pvqz5m6QE8CRse1HJs-11">
          <mxGeometry width="160" relative="1" as="geometry">
            <mxPoint x="391" y="134" as="sourcePoint" />
            <mxPoint x="315" y="134" as="targetPoint" />
          </mxGeometry>
        </mxCell>
        <mxCell id="88Pvqz5m6QE8CRse1HJs-25" value="4.1.return invalid view" style="text;html=1;align=center;verticalAlign=middle;resizable=0;points=[];autosize=1;strokeColor=none;fillColor=none;" vertex="1" parent="1">
          <mxGeometry x="336" y="136" width="134" height="26" as="geometry" />
        </mxCell>
        <mxCell id="88Pvqz5m6QE8CRse1HJs-26" value="" style="endArrow=open;endSize=12;dashed=1;html=1;rounded=0;" edge="1" parent="1">
          <mxGeometry width="160" relative="1" as="geometry">
            <mxPoint x="283" y="158.00000000000023" as="sourcePoint" />
            <mxPoint x="94" y="158.00000000000023" as="targetPoint" />
          </mxGeometry>
        </mxCell>
        <mxCell id="88Pvqz5m6QE8CRse1HJs-27" value="4.2.return invalid view&amp;nbsp;" style="text;html=1;align=center;verticalAlign=middle;resizable=0;points=[];autosize=1;strokeColor=none;fillColor=none;" vertex="1" parent="1">
          <mxGeometry x="129" y="129" width="137" height="26" as="geometry" />
        </mxCell>
        <mxCell id="88Pvqz5m6QE8CRse1HJs-28" value="invalid info" style="text;html=1;align=center;verticalAlign=middle;resizable=0;points=[];autosize=1;strokeColor=none;fillColor=none;" vertex="1" parent="1">
          <mxGeometry x="-88" y="144" width="75" height="26" as="geometry" />
        </mxCell>
        <mxCell id="88Pvqz5m6QE8CRse1HJs-29" value="" style="endArrow=classic;html=1;rounded=0;" edge="1" parent="1">
          <mxGeometry width="50" height="50" relative="1" as="geometry">
            <mxPoint x="502" y="216" as="sourcePoint" />
            <mxPoint x="695" y="216" as="targetPoint" />
          </mxGeometry>
        </mxCell>
        <mxCell id="88Pvqz5m6QE8CRse1HJs-30" value="5.save()" style="text;html=1;align=center;verticalAlign=middle;resizable=0;points=[];autosize=1;strokeColor=none;fillColor=none;" vertex="1" parent="1">
          <mxGeometry x="564" y="192" width="61" height="26" as="geometry" />
        </mxCell>
        <mxCell id="88Pvqz5m6QE8CRse1HJs-31" value="6.excuteUpdate()" style="text;html=1;align=center;verticalAlign=middle;resizable=0;points=[];autosize=1;strokeColor=none;fillColor=none;" vertex="1" parent="1">
          <mxGeometry x="733" y="218" width="110" height="26" as="geometry" />
        </mxCell>
        <mxCell id="88Pvqz5m6QE8CRse1HJs-32" value="" style="endArrow=classic;html=1;rounded=0;" edge="1" parent="1">
          <mxGeometry width="50" height="50" relative="1" as="geometry">
            <mxPoint x="702" y="244" as="sourcePoint" />
            <mxPoint x="861" y="244" as="targetPoint" />
          </mxGeometry>
        </mxCell>
        <mxCell id="88Pvqz5m6QE8CRse1HJs-33" value="" style="endArrow=open;endSize=12;dashed=1;html=1;rounded=0;" edge="1" parent="1">
          <mxGeometry width="160" relative="1" as="geometry">
            <mxPoint x="864" y="302.0000000000002" as="sourcePoint" />
            <mxPoint x="700" y="302" as="targetPoint" />
          </mxGeometry>
        </mxCell>
        <mxCell id="88Pvqz5m6QE8CRse1HJs-34" value="7.return result" style="text;html=1;align=center;verticalAlign=middle;resizable=0;points=[];autosize=1;strokeColor=none;fillColor=none;" vertex="1" parent="1">
          <mxGeometry x="742" y="273" width="92" height="26" as="geometry" />
        </mxCell>
        <mxCell id="88Pvqz5m6QE8CRse1HJs-35" value="" style="endArrow=open;endSize=12;dashed=1;html=1;rounded=0;" edge="1" parent="1" source="88Pvqz5m6QE8CRse1HJs-14">
          <mxGeometry width="160" relative="1" as="geometry">
            <mxPoint x="670" y="323.0000000000002" as="sourcePoint" />
            <mxPoint x="506" y="323" as="targetPoint" />
          </mxGeometry>
        </mxCell>
        <mxCell id="88Pvqz5m6QE8CRse1HJs-36" value="8.return result" style="text;html=1;align=center;verticalAlign=middle;resizable=0;points=[];autosize=1;strokeColor=none;fillColor=none;" vertex="1" parent="1">
          <mxGeometry x="552" y="296" width="92" height="26" as="geometry" />
        </mxCell>
        <mxCell id="88Pvqz5m6QE8CRse1HJs-37" value="" style="endArrow=open;endSize=12;dashed=1;html=1;rounded=0;" edge="1" parent="1" target="88Pvqz5m6QE8CRse1HJs-11">
          <mxGeometry width="160" relative="1" as="geometry">
            <mxPoint x="491" y="339" as="sourcePoint" />
            <mxPoint x="308" y="339" as="targetPoint" />
          </mxGeometry>
        </mxCell>
        <mxCell id="88Pvqz5m6QE8CRse1HJs-38" value="9.return result" style="text;html=1;align=center;verticalAlign=middle;resizable=0;points=[];autosize=1;strokeColor=none;fillColor=none;" vertex="1" parent="1">
          <mxGeometry x="340" y="313" width="92" height="26" as="geometry" />
        </mxCell>
        <mxCell id="88Pvqz5m6QE8CRse1HJs-39" value="" style="endArrow=open;endSize=12;dashed=1;html=1;rounded=0;" edge="1" parent="1">
          <mxGeometry width="160" relative="1" as="geometry">
            <mxPoint x="282" y="363" as="sourcePoint" />
            <mxPoint x="91" y="363" as="targetPoint" />
          </mxGeometry>
        </mxCell>
        <mxCell id="88Pvqz5m6QE8CRse1HJs-40" value="10.return valid view&amp;nbsp;" style="text;html=1;align=center;verticalAlign=middle;resizable=0;points=[];autosize=1;strokeColor=none;fillColor=none;" vertex="1" parent="1">
          <mxGeometry x="116" y="339" width="125" height="26" as="geometry" />
        </mxCell>
        <mxCell id="88Pvqz5m6QE8CRse1HJs-41" value="" style="endArrow=open;endSize=12;dashed=1;html=1;rounded=0;" edge="1" parent="1">
          <mxGeometry width="160" relative="1" as="geometry">
            <mxPoint x="84" y="469" as="sourcePoint" />
            <mxPoint x="-57" y="469" as="targetPoint" />
          </mxGeometry>
        </mxCell>
        <mxCell id="88Pvqz5m6QE8CRse1HJs-42" value="11.Display message&amp;nbsp;&lt;div&gt;update&lt;/div&gt;" style="text;html=1;align=center;verticalAlign=middle;resizable=0;points=[];autosize=1;strokeColor=none;fillColor=none;" vertex="1" parent="1">
          <mxGeometry x="-54" y="429" width="129" height="41" as="geometry" />
        </mxCell>
        <mxCell id="88Pvqz5m6QE8CRse1HJs-43" value="" style="endArrow=none;dashed=1;html=1;dashPattern=1 3;strokeWidth=2;rounded=0;exitX=0;exitY=0;exitDx=0;exitDy=5;exitPerimeter=0;entryX=0.5;entryY=1;entryDx=0;entryDy=0;" edge="1" parent="1" source="88Pvqz5m6QE8CRse1HJs-13" target="88Pvqz5m6QE8CRse1HJs-4">
          <mxGeometry width="50" height="50" relative="1" as="geometry">
            <mxPoint x="293" y="29" as="sourcePoint" />
            <mxPoint x="291" y="-65" as="targetPoint" />
          </mxGeometry>
        </mxCell>
        <mxCell id="88Pvqz5m6QE8CRse1HJs-44" value="" style="endArrow=none;dashed=1;html=1;dashPattern=1 3;strokeWidth=2;rounded=0;exitX=0.643;exitY=0.035;exitDx=0;exitDy=0;exitPerimeter=0;entryX=0.598;entryY=0.983;entryDx=0;entryDy=0;entryPerimeter=0;" edge="1" parent="1" source="88Pvqz5m6QE8CRse1HJs-14" target="88Pvqz5m6QE8CRse1HJs-5">
          <mxGeometry width="50" height="50" relative="1" as="geometry">
            <mxPoint x="303" y="39" as="sourcePoint" />
            <mxPoint x="301" y="-55" as="targetPoint" />
          </mxGeometry>
        </mxCell>
        <mxCell id="88Pvqz5m6QE8CRse1HJs-45" value="" style="endArrow=none;dashed=1;html=1;dashPattern=1 3;strokeWidth=2;rounded=0;exitX=0;exitY=0;exitDx=0;exitDy=5;exitPerimeter=0;entryX=0.5;entryY=1;entryDx=0;entryDy=0;" edge="1" parent="1" source="88Pvqz5m6QE8CRse1HJs-15" target="88Pvqz5m6QE8CRse1HJs-6">
          <mxGeometry width="50" height="50" relative="1" as="geometry">
            <mxPoint x="705" y="217" as="sourcePoint" />
            <mxPoint x="703" y="-69" as="targetPoint" />
          </mxGeometry>
        </mxCell>
        <mxCell id="YYOkbi5jEXnt5a3w9F---1" value="" style="endArrow=none;dashed=1;html=1;dashPattern=1 3;strokeWidth=2;rounded=0;" edge="1" parent="1">
          <mxGeometry width="50" height="50" relative="1" as="geometry">
            <mxPoint x="89" y="502" as="sourcePoint" />
            <mxPoint x="89" y="622" as="targetPoint" />
          </mxGeometry>
        </mxCell>
        <mxCell id="YYOkbi5jEXnt5a3w9F---2" value="" style="endArrow=none;dashed=1;html=1;dashPattern=1 3;strokeWidth=2;rounded=0;exitX=1;exitY=1;exitDx=0;exitDy=-5;exitPerimeter=0;" edge="1" parent="1" source="88Pvqz5m6QE8CRse1HJs-11">
          <mxGeometry width="50" height="50" relative="1" as="geometry">
            <mxPoint x="94" y="506" as="sourcePoint" />
            <mxPoint x="293" y="630" as="targetPoint" />
          </mxGeometry>
        </mxCell>
        <mxCell id="YYOkbi5jEXnt5a3w9F---3" value="" style="endArrow=none;dashed=1;html=1;dashPattern=1 3;strokeWidth=2;rounded=0;exitX=1;exitY=1;exitDx=0;exitDy=-5;exitPerimeter=0;" edge="1" parent="1" source="88Pvqz5m6QE8CRse1HJs-13">
          <mxGeometry width="50" height="50" relative="1" as="geometry">
            <mxPoint x="104" y="516" as="sourcePoint" />
            <mxPoint x="506" y="617" as="targetPoint" />
          </mxGeometry>
        </mxCell>
        <mxCell id="YYOkbi5jEXnt5a3w9F---4" value="" style="endArrow=none;dashed=1;html=1;dashPattern=1 3;strokeWidth=2;rounded=0;exitX=1;exitY=1;exitDx=0;exitDy=-5;exitPerimeter=0;" edge="1" parent="1" source="88Pvqz5m6QE8CRse1HJs-14">
          <mxGeometry width="50" height="50" relative="1" as="geometry">
            <mxPoint x="114" y="526" as="sourcePoint" />
            <mxPoint x="699" y="600" as="targetPoint" />
          </mxGeometry>
        </mxCell>
        <mxCell id="YYOkbi5jEXnt5a3w9F---5" value="" style="endArrow=none;dashed=1;html=1;dashPattern=1 3;strokeWidth=2;rounded=0;exitX=1;exitY=1;exitDx=0;exitDy=-5;exitPerimeter=0;" edge="1" parent="1" source="88Pvqz5m6QE8CRse1HJs-15">
          <mxGeometry width="50" height="50" relative="1" as="geometry">
            <mxPoint x="124" y="536" as="sourcePoint" />
            <mxPoint x="874" y="589" as="targetPoint" />
          </mxGeometry>
        </mxCell>
      </root>
    </mxGraphModel>
  </diagram>
  <diagram id="36kBYXtDgO-ULDLITHhZ" name="Delete">
    <mxGraphModel dx="1800" dy="1096" grid="0" gridSize="10" guides="1" tooltips="1" connect="1" arrows="1" fold="1" page="0" pageScale="1" pageWidth="1169" pageHeight="827" math="0" shadow="0">
      <root>
        <mxCell id="0" />
        <mxCell id="1" parent="0" />
        <mxCell id="UB2oP-a8GbwFanzCHx09-1" value="Amin&lt;div&gt;&lt;br&gt;&lt;/div&gt;" style="shape=umlActor;verticalLabelPosition=bottom;verticalAlign=top;html=1;outlineConnect=0;" vertex="1" parent="1">
          <mxGeometry x="-66" y="-127" width="30" height="60" as="geometry" />
        </mxCell>
        <mxCell id="UB2oP-a8GbwFanzCHx09-2" value="view" style="rounded=0;whiteSpace=wrap;html=1;" vertex="1" parent="1">
          <mxGeometry x="66" y="-111" width="62" height="33" as="geometry" />
        </mxCell>
        <mxCell id="UB2oP-a8GbwFanzCHx09-3" value="UserController" style="rounded=0;whiteSpace=wrap;html=1;" vertex="1" parent="1">
          <mxGeometry x="237" y="-111" width="112" height="33" as="geometry" />
        </mxCell>
        <mxCell id="UB2oP-a8GbwFanzCHx09-4" value="UserService&lt;span style=&quot;color: rgba(0, 0, 0, 0); font-family: monospace; font-size: 0px; text-align: start; text-wrap: nowrap; background-color: rgb(251, 251, 251);&quot;&gt;%3CmxGraphModel%3E%3Croot%3E%3CmxCell%20id%3D%220%22%2F%3E%3CmxCell%20id%3D%221%22%20parent%3D%220%22%2F%3E%3CmxCell%20id%3D%222%22%20value%3D%22EmployeeController%22%20style%3D%22rounded%3D0%3BwhiteSpace%3Dwrap%3Bhtml%3D1%3B%22%20vertex%3D%221%22%20parent%3D%221%22%3E%3CmxGeometry%20x%3D%22300%22%20y%3D%2233%22%20width%3D%22112%22%20height%3D%2233%22%20as%3D%22geometry%22%2F%3E%3C%2FmxCell%3E%3C%2Froot%3E%3C%2FmxGraphModel%3E&lt;/span&gt;" style="rounded=0;whiteSpace=wrap;html=1;" vertex="1" parent="1">
          <mxGeometry x="437" y="-111" width="112" height="33" as="geometry" />
        </mxCell>
        <mxCell id="UB2oP-a8GbwFanzCHx09-5" value="UserRepository" style="rounded=0;whiteSpace=wrap;html=1;" vertex="1" parent="1">
          <mxGeometry x="622" y="-111" width="119" height="33" as="geometry" />
        </mxCell>
        <mxCell id="UB2oP-a8GbwFanzCHx09-6" value="Database" style="rounded=0;whiteSpace=wrap;html=1;" vertex="1" parent="1">
          <mxGeometry x="807" y="-111" width="112" height="33" as="geometry" />
        </mxCell>
        <mxCell id="UB2oP-a8GbwFanzCHx09-7" value="" style="endArrow=none;dashed=1;html=1;dashPattern=1 3;strokeWidth=2;rounded=0;" edge="1" parent="1" source="UB2oP-a8GbwFanzCHx09-1">
          <mxGeometry width="50" height="50" relative="1" as="geometry">
            <mxPoint x="430" y="101" as="sourcePoint" />
            <mxPoint x="-58" y="533" as="targetPoint" />
          </mxGeometry>
        </mxCell>
        <mxCell id="UB2oP-a8GbwFanzCHx09-8" value="id found" style="edgeLabel;html=1;align=center;verticalAlign=middle;resizable=0;points=[];" vertex="1" connectable="0" parent="UB2oP-a8GbwFanzCHx09-7">
          <mxGeometry x="0.2108" y="6" relative="1" as="geometry">
            <mxPoint as="offset" />
          </mxGeometry>
        </mxCell>
        <mxCell id="UB2oP-a8GbwFanzCHx09-9" value="" style="html=1;points=[[0,0,0,0,5],[0,1,0,0,-5],[1,0,0,0,5],[1,1,0,0,-5]];perimeter=orthogonalPerimeter;outlineConnect=0;targetShapes=umlLifeline;portConstraint=eastwest;newEdgeStyle={&quot;curved&quot;:0,&quot;rounded&quot;:0};" vertex="1" parent="1">
          <mxGeometry x="84" y="-15" width="10" height="516" as="geometry" />
        </mxCell>
        <mxCell id="UB2oP-a8GbwFanzCHx09-10" value="" style="endArrow=none;dashed=1;html=1;dashPattern=1 3;strokeWidth=2;rounded=0;" edge="1" parent="1">
          <mxGeometry width="50" height="50" relative="1" as="geometry">
            <mxPoint x="89" y="-10" as="sourcePoint" />
            <mxPoint x="89" y="-69" as="targetPoint" />
          </mxGeometry>
        </mxCell>
        <mxCell id="UB2oP-a8GbwFanzCHx09-11" value="" style="html=1;points=[[0,0,0,0,5],[0,1,0,0,-5],[1,0,0,0,5],[1,1,0,0,-5]];perimeter=orthogonalPerimeter;outlineConnect=0;targetShapes=umlLifeline;portConstraint=eastwest;newEdgeStyle={&quot;curved&quot;:0,&quot;rounded&quot;:0};" vertex="1" parent="1">
          <mxGeometry x="283" y="14" width="10" height="392" as="geometry" />
        </mxCell>
        <mxCell id="UB2oP-a8GbwFanzCHx09-12" value="" style="endArrow=none;dashed=1;html=1;dashPattern=1 3;strokeWidth=2;rounded=0;exitX=0;exitY=0;exitDx=0;exitDy=5;exitPerimeter=0;entryX=0.389;entryY=1.087;entryDx=0;entryDy=0;entryPerimeter=0;" edge="1" parent="1" source="UB2oP-a8GbwFanzCHx09-11" target="UB2oP-a8GbwFanzCHx09-3">
          <mxGeometry width="50" height="50" relative="1" as="geometry">
            <mxPoint x="99" as="sourcePoint" />
            <mxPoint x="99" y="-59" as="targetPoint" />
          </mxGeometry>
        </mxCell>
        <mxCell id="UB2oP-a8GbwFanzCHx09-13" value="" style="html=1;points=[[0,0,0,0,5],[0,1,0,0,-5],[1,0,0,0,5],[1,1,0,0,-5]];perimeter=orthogonalPerimeter;outlineConnect=0;targetShapes=umlLifeline;portConstraint=eastwest;newEdgeStyle={&quot;curved&quot;:0,&quot;rounded&quot;:0};" vertex="1" parent="1">
          <mxGeometry x="496" y="40" width="10" height="361" as="geometry" />
        </mxCell>
        <mxCell id="UB2oP-a8GbwFanzCHx09-14" value="" style="html=1;points=[[0,0,0,0,5],[0,1,0,0,-5],[1,0,0,0,5],[1,1,0,0,-5]];perimeter=orthogonalPerimeter;outlineConnect=0;targetShapes=umlLifeline;portConstraint=eastwest;newEdgeStyle={&quot;curved&quot;:0,&quot;rounded&quot;:0};" vertex="1" parent="1">
          <mxGeometry x="689" y="201" width="10" height="172" as="geometry" />
        </mxCell>
        <mxCell id="UB2oP-a8GbwFanzCHx09-15" value="" style="html=1;points=[[0,0,0,0,5],[0,1,0,0,-5],[1,0,0,0,5],[1,1,0,0,-5]];perimeter=orthogonalPerimeter;outlineConnect=0;targetShapes=umlLifeline;portConstraint=eastwest;newEdgeStyle={&quot;curved&quot;:0,&quot;rounded&quot;:0};" vertex="1" parent="1">
          <mxGeometry x="864" y="222" width="10" height="127" as="geometry" />
        </mxCell>
        <mxCell id="UB2oP-a8GbwFanzCHx09-16" value="" style="endArrow=classic;html=1;rounded=0;entryX=0;entryY=0;entryDx=0;entryDy=5;entryPerimeter=0;" edge="1" parent="1" target="UB2oP-a8GbwFanzCHx09-9">
          <mxGeometry width="50" height="50" relative="1" as="geometry">
            <mxPoint x="-50" y="-10" as="sourcePoint" />
            <mxPoint x="480" y="100" as="targetPoint" />
          </mxGeometry>
        </mxCell>
        <mxCell id="UB2oP-a8GbwFanzCHx09-17" value="1.Select deleted&amp;nbsp;&lt;span style=&quot;text-wrap: wrap;&quot;&gt;User&lt;/span&gt;" style="text;html=1;align=center;verticalAlign=middle;resizable=0;points=[];autosize=1;strokeColor=none;fillColor=none;" vertex="1" parent="1">
          <mxGeometry x="-49" y="-41" width="133" height="26" as="geometry" />
        </mxCell>
        <mxCell id="UB2oP-a8GbwFanzCHx09-18" value="" style="endArrow=classic;html=1;rounded=0;entryX=0;entryY=0;entryDx=0;entryDy=5;entryPerimeter=0;" edge="1" parent="1">
          <mxGeometry width="50" height="50" relative="1" as="geometry">
            <mxPoint x="98" y="27" as="sourcePoint" />
            <mxPoint x="283" y="26" as="targetPoint" />
          </mxGeometry>
        </mxCell>
        <mxCell id="UB2oP-a8GbwFanzCHx09-19" value="3.deleteById()" style="text;html=1;align=center;verticalAlign=middle;resizable=0;points=[];autosize=1;strokeColor=none;fillColor=none;" vertex="1" parent="1">
          <mxGeometry x="137" y="-1" width="93" height="26" as="geometry" />
        </mxCell>
        <mxCell id="UB2oP-a8GbwFanzCHx09-20" value="4.deleteById()" style="text;html=1;align=center;verticalAlign=middle;resizable=0;points=[];autosize=1;strokeColor=none;fillColor=none;" vertex="1" parent="1">
          <mxGeometry x="362" y="20" width="93" height="26" as="geometry" />
        </mxCell>
        <mxCell id="UB2oP-a8GbwFanzCHx09-21" value="" style="endArrow=classic;html=1;rounded=0;" edge="1" parent="1" target="UB2oP-a8GbwFanzCHx09-13">
          <mxGeometry width="50" height="50" relative="1" as="geometry">
            <mxPoint x="297" y="41" as="sourcePoint" />
            <mxPoint x="482" y="40" as="targetPoint" />
          </mxGeometry>
        </mxCell>
        <mxCell id="UB2oP-a8GbwFanzCHx09-22" value="alt find User&amp;nbsp;id" style="shape=umlFrame;whiteSpace=wrap;html=1;pointerEvents=0;width=182;height=37;" vertex="1" parent="1">
          <mxGeometry x="-193" y="102" width="1204" height="321" as="geometry" />
        </mxCell>
        <mxCell id="UB2oP-a8GbwFanzCHx09-23" value="" style="endArrow=none;dashed=1;html=1;dashPattern=1 3;strokeWidth=2;rounded=0;" edge="1" parent="1">
          <mxGeometry width="50" height="50" relative="1" as="geometry">
            <mxPoint x="-196" y="185" as="sourcePoint" />
            <mxPoint x="1091" y="185" as="targetPoint" />
          </mxGeometry>
        </mxCell>
        <mxCell id="UB2oP-a8GbwFanzCHx09-24" value="" style="endArrow=open;endSize=12;dashed=1;html=1;rounded=0;entryX=1;entryY=0.269;entryDx=0;entryDy=0;entryPerimeter=0;" edge="1" parent="1" source="UB2oP-a8GbwFanzCHx09-13" target="UB2oP-a8GbwFanzCHx09-11">
          <mxGeometry width="160" relative="1" as="geometry">
            <mxPoint x="391" y="134" as="sourcePoint" />
            <mxPoint x="315" y="134" as="targetPoint" />
          </mxGeometry>
        </mxCell>
        <mxCell id="UB2oP-a8GbwFanzCHx09-25" value="5.1 return not found&lt;div&gt;&amp;nbsp;message&lt;/div&gt;" style="text;html=1;align=center;verticalAlign=middle;resizable=0;points=[];autosize=1;strokeColor=none;fillColor=none;" vertex="1" parent="1">
          <mxGeometry x="342" y="129" width="123" height="41" as="geometry" />
        </mxCell>
        <mxCell id="UB2oP-a8GbwFanzCHx09-26" value="" style="endArrow=open;endSize=12;dashed=1;html=1;rounded=0;" edge="1" parent="1">
          <mxGeometry width="160" relative="1" as="geometry">
            <mxPoint x="283" y="158.00000000000023" as="sourcePoint" />
            <mxPoint x="94" y="158.00000000000023" as="targetPoint" />
          </mxGeometry>
        </mxCell>
        <mxCell id="UB2oP-a8GbwFanzCHx09-27" value="5.2 return not found&lt;div&gt;&amp;nbsp;message&lt;/div&gt;" style="text;html=1;align=center;verticalAlign=middle;resizable=0;points=[];autosize=1;strokeColor=none;fillColor=none;" vertex="1" parent="1">
          <mxGeometry x="136" y="122" width="123" height="41" as="geometry" />
        </mxCell>
        <mxCell id="UB2oP-a8GbwFanzCHx09-28" value="id not found" style="text;html=1;align=center;verticalAlign=middle;resizable=0;points=[];autosize=1;strokeColor=none;fillColor=none;" vertex="1" parent="1">
          <mxGeometry x="-91" y="144" width="81" height="26" as="geometry" />
        </mxCell>
        <mxCell id="UB2oP-a8GbwFanzCHx09-29" value="" style="endArrow=classic;html=1;rounded=0;" edge="1" parent="1">
          <mxGeometry width="50" height="50" relative="1" as="geometry">
            <mxPoint x="502" y="216" as="sourcePoint" />
            <mxPoint x="695" y="216" as="targetPoint" />
          </mxGeometry>
        </mxCell>
        <mxCell id="UB2oP-a8GbwFanzCHx09-30" value="6.deleteById()" style="text;html=1;align=center;verticalAlign=middle;resizable=0;points=[];autosize=1;strokeColor=none;fillColor=none;" vertex="1" parent="1">
          <mxGeometry x="548" y="192" width="93" height="26" as="geometry" />
        </mxCell>
        <mxCell id="UB2oP-a8GbwFanzCHx09-31" value="7.excuteDelete()" style="text;html=1;align=center;verticalAlign=middle;resizable=0;points=[];autosize=1;strokeColor=none;fillColor=none;" vertex="1" parent="1">
          <mxGeometry x="735" y="218" width="106" height="26" as="geometry" />
        </mxCell>
        <mxCell id="UB2oP-a8GbwFanzCHx09-32" value="" style="endArrow=classic;html=1;rounded=0;" edge="1" parent="1">
          <mxGeometry width="50" height="50" relative="1" as="geometry">
            <mxPoint x="702" y="244" as="sourcePoint" />
            <mxPoint x="861" y="244" as="targetPoint" />
          </mxGeometry>
        </mxCell>
        <mxCell id="UB2oP-a8GbwFanzCHx09-33" value="" style="endArrow=open;endSize=12;dashed=1;html=1;rounded=0;" edge="1" parent="1">
          <mxGeometry width="160" relative="1" as="geometry">
            <mxPoint x="864" y="302.0000000000002" as="sourcePoint" />
            <mxPoint x="700" y="302" as="targetPoint" />
          </mxGeometry>
        </mxCell>
        <mxCell id="UB2oP-a8GbwFanzCHx09-34" value="8.return result" style="text;html=1;align=center;verticalAlign=middle;resizable=0;points=[];autosize=1;strokeColor=none;fillColor=none;" vertex="1" parent="1">
          <mxGeometry x="742" y="273" width="92" height="26" as="geometry" />
        </mxCell>
        <mxCell id="UB2oP-a8GbwFanzCHx09-35" value="" style="endArrow=open;endSize=12;dashed=1;html=1;rounded=0;" edge="1" parent="1" source="UB2oP-a8GbwFanzCHx09-14">
          <mxGeometry width="160" relative="1" as="geometry">
            <mxPoint x="670" y="323.0000000000002" as="sourcePoint" />
            <mxPoint x="506" y="323" as="targetPoint" />
          </mxGeometry>
        </mxCell>
        <mxCell id="UB2oP-a8GbwFanzCHx09-36" value="9.return result" style="text;html=1;align=center;verticalAlign=middle;resizable=0;points=[];autosize=1;strokeColor=none;fillColor=none;" vertex="1" parent="1">
          <mxGeometry x="552" y="296" width="92" height="26" as="geometry" />
        </mxCell>
        <mxCell id="UB2oP-a8GbwFanzCHx09-37" value="" style="endArrow=open;endSize=12;dashed=1;html=1;rounded=0;" edge="1" parent="1" target="UB2oP-a8GbwFanzCHx09-11">
          <mxGeometry width="160" relative="1" as="geometry">
            <mxPoint x="491" y="339" as="sourcePoint" />
            <mxPoint x="308" y="339" as="targetPoint" />
          </mxGeometry>
        </mxCell>
        <mxCell id="UB2oP-a8GbwFanzCHx09-38" value="10.return result" style="text;html=1;align=center;verticalAlign=middle;resizable=0;points=[];autosize=1;strokeColor=none;fillColor=none;" vertex="1" parent="1">
          <mxGeometry x="337" y="313" width="99" height="26" as="geometry" />
        </mxCell>
        <mxCell id="UB2oP-a8GbwFanzCHx09-39" value="" style="endArrow=open;endSize=12;dashed=1;html=1;rounded=0;" edge="1" parent="1">
          <mxGeometry width="160" relative="1" as="geometry">
            <mxPoint x="282" y="363" as="sourcePoint" />
            <mxPoint x="91" y="363" as="targetPoint" />
          </mxGeometry>
        </mxCell>
        <mxCell id="UB2oP-a8GbwFanzCHx09-40" value="11.return after deleting view" style="text;html=1;align=center;verticalAlign=middle;resizable=0;points=[];autosize=1;strokeColor=none;fillColor=none;" vertex="1" parent="1">
          <mxGeometry x="96" y="339" width="165" height="26" as="geometry" />
        </mxCell>
        <mxCell id="UB2oP-a8GbwFanzCHx09-41" value="" style="endArrow=open;endSize=12;dashed=1;html=1;rounded=0;" edge="1" parent="1">
          <mxGeometry width="160" relative="1" as="geometry">
            <mxPoint x="84" y="469" as="sourcePoint" />
            <mxPoint x="-57" y="469" as="targetPoint" />
          </mxGeometry>
        </mxCell>
        <mxCell id="UB2oP-a8GbwFanzCHx09-42" value="11.Display message&amp;nbsp;&lt;div&gt;delete&lt;/div&gt;" style="text;html=1;align=center;verticalAlign=middle;resizable=0;points=[];autosize=1;strokeColor=none;fillColor=none;" vertex="1" parent="1">
          <mxGeometry x="-54" y="429" width="129" height="41" as="geometry" />
        </mxCell>
        <mxCell id="UB2oP-a8GbwFanzCHx09-43" value="" style="endArrow=none;dashed=1;html=1;dashPattern=1 3;strokeWidth=2;rounded=0;exitX=0;exitY=0;exitDx=0;exitDy=5;exitPerimeter=0;entryX=0.5;entryY=1;entryDx=0;entryDy=0;" edge="1" parent="1" source="UB2oP-a8GbwFanzCHx09-13" target="UB2oP-a8GbwFanzCHx09-4">
          <mxGeometry width="50" height="50" relative="1" as="geometry">
            <mxPoint x="293" y="29" as="sourcePoint" />
            <mxPoint x="291" y="-65" as="targetPoint" />
          </mxGeometry>
        </mxCell>
        <mxCell id="UB2oP-a8GbwFanzCHx09-44" value="" style="endArrow=none;dashed=1;html=1;dashPattern=1 3;strokeWidth=2;rounded=0;exitX=0.643;exitY=0.035;exitDx=0;exitDy=0;exitPerimeter=0;entryX=0.598;entryY=0.983;entryDx=0;entryDy=0;entryPerimeter=0;" edge="1" parent="1" source="UB2oP-a8GbwFanzCHx09-14" target="UB2oP-a8GbwFanzCHx09-5">
          <mxGeometry width="50" height="50" relative="1" as="geometry">
            <mxPoint x="303" y="39" as="sourcePoint" />
            <mxPoint x="301" y="-55" as="targetPoint" />
          </mxGeometry>
        </mxCell>
        <mxCell id="UB2oP-a8GbwFanzCHx09-45" value="" style="endArrow=none;dashed=1;html=1;dashPattern=1 3;strokeWidth=2;rounded=0;exitX=0;exitY=0;exitDx=0;exitDy=5;exitPerimeter=0;entryX=0.5;entryY=1;entryDx=0;entryDy=0;" edge="1" parent="1" source="UB2oP-a8GbwFanzCHx09-15" target="UB2oP-a8GbwFanzCHx09-6">
          <mxGeometry width="50" height="50" relative="1" as="geometry">
            <mxPoint x="705" y="217" as="sourcePoint" />
            <mxPoint x="703" y="-69" as="targetPoint" />
          </mxGeometry>
        </mxCell>
        <mxCell id="UB2oP-a8GbwFanzCHx09-46" value="" style="endArrow=classic;html=1;rounded=0;entryX=0;entryY=0;entryDx=0;entryDy=5;entryPerimeter=0;" edge="1" parent="1">
          <mxGeometry width="50" height="50" relative="1" as="geometry">
            <mxPoint x="-50" y="14" as="sourcePoint" />
            <mxPoint x="84" y="14" as="targetPoint" />
          </mxGeometry>
        </mxCell>
        <mxCell id="UB2oP-a8GbwFanzCHx09-47" value="2.Click button delete" style="text;html=1;align=center;verticalAlign=middle;resizable=0;points=[];autosize=1;strokeColor=none;fillColor=none;" vertex="1" parent="1">
          <mxGeometry x="-57" y="14" width="127" height="26" as="geometry" />
        </mxCell>
        <mxCell id="ZDxhTQOtnO0asA1L20fL-1" value="" style="endArrow=none;dashed=1;html=1;dashPattern=1 3;strokeWidth=2;rounded=0;exitX=0;exitY=1;exitDx=0;exitDy=-5;exitPerimeter=0;" edge="1" parent="1">
          <mxGeometry width="50" height="50" relative="1" as="geometry">
            <mxPoint x="84" y="496" as="sourcePoint" />
            <mxPoint x="84" y="607" as="targetPoint" />
          </mxGeometry>
        </mxCell>
        <mxCell id="ZDxhTQOtnO0asA1L20fL-2" value="" style="endArrow=none;dashed=1;html=1;dashPattern=1 3;strokeWidth=2;rounded=0;exitX=0;exitY=1;exitDx=0;exitDy=-5;exitPerimeter=0;" edge="1" parent="1" source="UB2oP-a8GbwFanzCHx09-11">
          <mxGeometry width="50" height="50" relative="1" as="geometry">
            <mxPoint x="94" y="506" as="sourcePoint" />
            <mxPoint x="283" y="607" as="targetPoint" />
          </mxGeometry>
        </mxCell>
        <mxCell id="ZDxhTQOtnO0asA1L20fL-3" value="" style="endArrow=none;dashed=1;html=1;dashPattern=1 3;strokeWidth=2;rounded=0;exitX=0;exitY=1;exitDx=0;exitDy=-5;exitPerimeter=0;" edge="1" parent="1" source="UB2oP-a8GbwFanzCHx09-13">
          <mxGeometry width="50" height="50" relative="1" as="geometry">
            <mxPoint x="104" y="516" as="sourcePoint" />
            <mxPoint x="496" y="627" as="targetPoint" />
          </mxGeometry>
        </mxCell>
        <mxCell id="ZDxhTQOtnO0asA1L20fL-4" value="" style="endArrow=none;dashed=1;html=1;dashPattern=1 3;strokeWidth=2;rounded=0;exitX=0;exitY=1;exitDx=0;exitDy=-5;exitPerimeter=0;" edge="1" parent="1" source="UB2oP-a8GbwFanzCHx09-14">
          <mxGeometry width="50" height="50" relative="1" as="geometry">
            <mxPoint x="114" y="526" as="sourcePoint" />
            <mxPoint x="689" y="612" as="targetPoint" />
          </mxGeometry>
        </mxCell>
        <mxCell id="ZDxhTQOtnO0asA1L20fL-5" value="" style="endArrow=none;dashed=1;html=1;dashPattern=1 3;strokeWidth=2;rounded=0;exitX=0;exitY=1;exitDx=0;exitDy=-5;exitPerimeter=0;" edge="1" parent="1" source="UB2oP-a8GbwFanzCHx09-15">
          <mxGeometry width="50" height="50" relative="1" as="geometry">
            <mxPoint x="124" y="536" as="sourcePoint" />
            <mxPoint x="864" y="569" as="targetPoint" />
          </mxGeometry>
        </mxCell>
      </root>
    </mxGraphModel>
  </diagram>
  <diagram id="636myrHttmepVmRvRQQ9" name="add">
    <mxGraphModel dx="1713" dy="1053" grid="0" gridSize="10" guides="1" tooltips="1" connect="1" arrows="1" fold="1" page="0" pageScale="1" pageWidth="1169" pageHeight="827" math="0" shadow="0">
      <root>
        <mxCell id="0" />
        <mxCell id="1" parent="0" />
        <mxCell id="U4wHOanZgRLeDE3v2Qhg-1" value="Amin&lt;div&gt;&lt;br&gt;&lt;/div&gt;" style="shape=umlActor;verticalLabelPosition=bottom;verticalAlign=top;html=1;outlineConnect=0;" vertex="1" parent="1">
          <mxGeometry x="-66" y="-127" width="30" height="60" as="geometry" />
        </mxCell>
        <mxCell id="U4wHOanZgRLeDE3v2Qhg-2" value="view" style="rounded=0;whiteSpace=wrap;html=1;" vertex="1" parent="1">
          <mxGeometry x="66" y="-111" width="62" height="33" as="geometry" />
        </mxCell>
        <mxCell id="U4wHOanZgRLeDE3v2Qhg-3" value="UserController" style="rounded=0;whiteSpace=wrap;html=1;" vertex="1" parent="1">
          <mxGeometry x="237" y="-111" width="112" height="33" as="geometry" />
        </mxCell>
        <mxCell id="U4wHOanZgRLeDE3v2Qhg-4" value="UserService&lt;span style=&quot;color: rgba(0, 0, 0, 0); font-family: monospace; font-size: 0px; text-align: start; text-wrap: nowrap; background-color: rgb(251, 251, 251);&quot;&gt;%3CmxGraphModel%3E%3Croot%3E%3CmxCell%20id%3D%220%22%2F%3E%3CmxCell%20id%3D%221%22%20parent%3D%220%22%2F%3E%3CmxCell%20id%3D%222%22%20value%3D%22EmployeeController%22%20style%3D%22rounded%3D0%3BwhiteSpace%3Dwrap%3Bhtml%3D1%3B%22%20vertex%3D%221%22%20parent%3D%221%22%3E%3CmxGeometry%20x%3D%22300%22%20y%3D%2233%22%20width%3D%22112%22%20height%3D%2233%22%20as%3D%22geometry%22%2F%3E%3C%2FmxCell%3E%3C%2Froot%3E%3C%2FmxGraphModel%3E&lt;/span&gt;" style="rounded=0;whiteSpace=wrap;html=1;" vertex="1" parent="1">
          <mxGeometry x="437" y="-111" width="112" height="33" as="geometry" />
        </mxCell>
        <mxCell id="U4wHOanZgRLeDE3v2Qhg-5" value="UserRepository" style="rounded=0;whiteSpace=wrap;html=1;" vertex="1" parent="1">
          <mxGeometry x="622" y="-111" width="119" height="33" as="geometry" />
        </mxCell>
        <mxCell id="U4wHOanZgRLeDE3v2Qhg-6" value="Database" style="rounded=0;whiteSpace=wrap;html=1;" vertex="1" parent="1">
          <mxGeometry x="807" y="-111" width="112" height="33" as="geometry" />
        </mxCell>
        <mxCell id="U4wHOanZgRLeDE3v2Qhg-7" value="" style="endArrow=none;dashed=1;html=1;dashPattern=1 3;strokeWidth=2;rounded=0;" edge="1" parent="1" source="U4wHOanZgRLeDE3v2Qhg-1">
          <mxGeometry width="50" height="50" relative="1" as="geometry">
            <mxPoint x="430" y="101" as="sourcePoint" />
            <mxPoint x="-58" y="533" as="targetPoint" />
          </mxGeometry>
        </mxCell>
        <mxCell id="U4wHOanZgRLeDE3v2Qhg-8" value="valid info" style="edgeLabel;html=1;align=center;verticalAlign=middle;resizable=0;points=[];" vertex="1" connectable="0" parent="U4wHOanZgRLeDE3v2Qhg-7">
          <mxGeometry x="0.2108" y="6" relative="1" as="geometry">
            <mxPoint as="offset" />
          </mxGeometry>
        </mxCell>
        <mxCell id="U4wHOanZgRLeDE3v2Qhg-9" value="" style="html=1;points=[[0,0,0,0,5],[0,1,0,0,-5],[1,0,0,0,5],[1,1,0,0,-5]];perimeter=orthogonalPerimeter;outlineConnect=0;targetShapes=umlLifeline;portConstraint=eastwest;newEdgeStyle={&quot;curved&quot;:0,&quot;rounded&quot;:0};" vertex="1" parent="1">
          <mxGeometry x="84" y="-15" width="10" height="516" as="geometry" />
        </mxCell>
        <mxCell id="U4wHOanZgRLeDE3v2Qhg-10" value="" style="endArrow=none;dashed=1;html=1;dashPattern=1 3;strokeWidth=2;rounded=0;" edge="1" parent="1">
          <mxGeometry width="50" height="50" relative="1" as="geometry">
            <mxPoint x="89" y="-10" as="sourcePoint" />
            <mxPoint x="89" y="-69" as="targetPoint" />
          </mxGeometry>
        </mxCell>
        <mxCell id="U4wHOanZgRLeDE3v2Qhg-11" value="" style="html=1;points=[[0,0,0,0,5],[0,1,0,0,-5],[1,0,0,0,5],[1,1,0,0,-5]];perimeter=orthogonalPerimeter;outlineConnect=0;targetShapes=umlLifeline;portConstraint=eastwest;newEdgeStyle={&quot;curved&quot;:0,&quot;rounded&quot;:0};" vertex="1" parent="1">
          <mxGeometry x="283" y="14" width="10" height="392" as="geometry" />
        </mxCell>
        <mxCell id="U4wHOanZgRLeDE3v2Qhg-12" value="" style="endArrow=none;dashed=1;html=1;dashPattern=1 3;strokeWidth=2;rounded=0;exitX=0;exitY=0;exitDx=0;exitDy=5;exitPerimeter=0;entryX=0.389;entryY=1.087;entryDx=0;entryDy=0;entryPerimeter=0;" edge="1" parent="1" source="U4wHOanZgRLeDE3v2Qhg-11" target="U4wHOanZgRLeDE3v2Qhg-3">
          <mxGeometry width="50" height="50" relative="1" as="geometry">
            <mxPoint x="99" as="sourcePoint" />
            <mxPoint x="99" y="-59" as="targetPoint" />
          </mxGeometry>
        </mxCell>
        <mxCell id="U4wHOanZgRLeDE3v2Qhg-13" value="" style="html=1;points=[[0,0,0,0,5],[0,1,0,0,-5],[1,0,0,0,5],[1,1,0,0,-5]];perimeter=orthogonalPerimeter;outlineConnect=0;targetShapes=umlLifeline;portConstraint=eastwest;newEdgeStyle={&quot;curved&quot;:0,&quot;rounded&quot;:0};" vertex="1" parent="1">
          <mxGeometry x="496" y="40" width="10" height="361" as="geometry" />
        </mxCell>
        <mxCell id="U4wHOanZgRLeDE3v2Qhg-14" value="" style="html=1;points=[[0,0,0,0,5],[0,1,0,0,-5],[1,0,0,0,5],[1,1,0,0,-5]];perimeter=orthogonalPerimeter;outlineConnect=0;targetShapes=umlLifeline;portConstraint=eastwest;newEdgeStyle={&quot;curved&quot;:0,&quot;rounded&quot;:0};" vertex="1" parent="1">
          <mxGeometry x="689" y="201" width="10" height="172" as="geometry" />
        </mxCell>
        <mxCell id="U4wHOanZgRLeDE3v2Qhg-15" value="" style="html=1;points=[[0,0,0,0,5],[0,1,0,0,-5],[1,0,0,0,5],[1,1,0,0,-5]];perimeter=orthogonalPerimeter;outlineConnect=0;targetShapes=umlLifeline;portConstraint=eastwest;newEdgeStyle={&quot;curved&quot;:0,&quot;rounded&quot;:0};" vertex="1" parent="1">
          <mxGeometry x="864" y="222" width="10" height="127" as="geometry" />
        </mxCell>
        <mxCell id="U4wHOanZgRLeDE3v2Qhg-16" value="" style="endArrow=classic;html=1;rounded=0;entryX=0;entryY=0;entryDx=0;entryDy=5;entryPerimeter=0;" edge="1" parent="1" target="U4wHOanZgRLeDE3v2Qhg-9">
          <mxGeometry width="50" height="50" relative="1" as="geometry">
            <mxPoint x="-50" y="-10" as="sourcePoint" />
            <mxPoint x="480" y="100" as="targetPoint" />
          </mxGeometry>
        </mxCell>
        <mxCell id="U4wHOanZgRLeDE3v2Qhg-17" value="1.Admin click add&lt;div&gt;&amp;nbsp;user&lt;/div&gt;" style="text;html=1;align=center;verticalAlign=middle;resizable=0;points=[];autosize=1;strokeColor=none;fillColor=none;" vertex="1" parent="1">
          <mxGeometry x="-38" y="-49" width="112" height="41" as="geometry" />
        </mxCell>
        <mxCell id="U4wHOanZgRLeDE3v2Qhg-18" value="" style="endArrow=classic;html=1;rounded=0;entryX=0;entryY=0;entryDx=0;entryDy=5;entryPerimeter=0;" edge="1" parent="1">
          <mxGeometry width="50" height="50" relative="1" as="geometry">
            <mxPoint x="98" y="31" as="sourcePoint" />
            <mxPoint x="283.0000000000002" y="30" as="targetPoint" />
          </mxGeometry>
        </mxCell>
        <mxCell id="U4wHOanZgRLeDE3v2Qhg-19" value="3.save()" style="text;html=1;align=center;verticalAlign=middle;resizable=0;points=[];autosize=1;strokeColor=none;fillColor=none;" vertex="1" parent="1">
          <mxGeometry x="158" y="-19" width="61" height="26" as="geometry" />
        </mxCell>
        <mxCell id="U4wHOanZgRLeDE3v2Qhg-20" value="4.save()" style="text;html=1;align=center;verticalAlign=middle;resizable=0;points=[];autosize=1;strokeColor=none;fillColor=none;" vertex="1" parent="1">
          <mxGeometry x="378" y="20" width="61" height="26" as="geometry" />
        </mxCell>
        <mxCell id="U4wHOanZgRLeDE3v2Qhg-21" value="" style="endArrow=classic;html=1;rounded=0;" edge="1" parent="1" target="U4wHOanZgRLeDE3v2Qhg-13">
          <mxGeometry width="50" height="50" relative="1" as="geometry">
            <mxPoint x="297" y="41" as="sourcePoint" />
            <mxPoint x="482" y="40" as="targetPoint" />
          </mxGeometry>
        </mxCell>
        <mxCell id="U4wHOanZgRLeDE3v2Qhg-22" value="alt validate info User" style="shape=umlFrame;whiteSpace=wrap;html=1;pointerEvents=0;width=182;height=37;" vertex="1" parent="1">
          <mxGeometry x="-193" y="102" width="1204" height="321" as="geometry" />
        </mxCell>
        <mxCell id="U4wHOanZgRLeDE3v2Qhg-23" value="" style="endArrow=none;dashed=1;html=1;dashPattern=1 3;strokeWidth=2;rounded=0;" edge="1" parent="1">
          <mxGeometry width="50" height="50" relative="1" as="geometry">
            <mxPoint x="-196" y="185" as="sourcePoint" />
            <mxPoint x="1091" y="185" as="targetPoint" />
          </mxGeometry>
        </mxCell>
        <mxCell id="U4wHOanZgRLeDE3v2Qhg-24" value="" style="endArrow=open;endSize=12;dashed=1;html=1;rounded=0;entryX=1;entryY=0.269;entryDx=0;entryDy=0;entryPerimeter=0;" edge="1" parent="1" source="U4wHOanZgRLeDE3v2Qhg-13" target="U4wHOanZgRLeDE3v2Qhg-11">
          <mxGeometry width="160" relative="1" as="geometry">
            <mxPoint x="391" y="134" as="sourcePoint" />
            <mxPoint x="315" y="134" as="targetPoint" />
          </mxGeometry>
        </mxCell>
        <mxCell id="U4wHOanZgRLeDE3v2Qhg-25" value="5.1 .return invalid view" style="text;html=1;align=center;verticalAlign=middle;resizable=0;points=[];autosize=1;strokeColor=none;fillColor=none;" vertex="1" parent="1">
          <mxGeometry x="335" y="136" width="137" height="26" as="geometry" />
        </mxCell>
        <mxCell id="U4wHOanZgRLeDE3v2Qhg-26" value="" style="endArrow=open;endSize=12;dashed=1;html=1;rounded=0;" edge="1" parent="1">
          <mxGeometry width="160" relative="1" as="geometry">
            <mxPoint x="283" y="158.00000000000023" as="sourcePoint" />
            <mxPoint x="94" y="158.00000000000023" as="targetPoint" />
          </mxGeometry>
        </mxCell>
        <mxCell id="U4wHOanZgRLeDE3v2Qhg-27" value="5.2.return invalid view&amp;nbsp;" style="text;html=1;align=center;verticalAlign=middle;resizable=0;points=[];autosize=1;strokeColor=none;fillColor=none;" vertex="1" parent="1">
          <mxGeometry x="129" y="129" width="137" height="26" as="geometry" />
        </mxCell>
        <mxCell id="U4wHOanZgRLeDE3v2Qhg-28" value="invalid info" style="text;html=1;align=center;verticalAlign=middle;resizable=0;points=[];autosize=1;strokeColor=none;fillColor=none;" vertex="1" parent="1">
          <mxGeometry x="-88" y="144" width="75" height="26" as="geometry" />
        </mxCell>
        <mxCell id="U4wHOanZgRLeDE3v2Qhg-29" value="" style="endArrow=classic;html=1;rounded=0;" edge="1" parent="1">
          <mxGeometry width="50" height="50" relative="1" as="geometry">
            <mxPoint x="502" y="216" as="sourcePoint" />
            <mxPoint x="695" y="216" as="targetPoint" />
          </mxGeometry>
        </mxCell>
        <mxCell id="U4wHOanZgRLeDE3v2Qhg-30" value="6.save()" style="text;html=1;align=center;verticalAlign=middle;resizable=0;points=[];autosize=1;strokeColor=none;fillColor=none;" vertex="1" parent="1">
          <mxGeometry x="564" y="192" width="61" height="26" as="geometry" />
        </mxCell>
        <mxCell id="U4wHOanZgRLeDE3v2Qhg-31" value="7.excuteAdd()" style="text;html=1;align=center;verticalAlign=middle;resizable=0;points=[];autosize=1;strokeColor=none;fillColor=none;" vertex="1" parent="1">
          <mxGeometry x="742" y="218" width="93" height="26" as="geometry" />
        </mxCell>
        <mxCell id="U4wHOanZgRLeDE3v2Qhg-32" value="" style="endArrow=classic;html=1;rounded=0;" edge="1" parent="1">
          <mxGeometry width="50" height="50" relative="1" as="geometry">
            <mxPoint x="702" y="244" as="sourcePoint" />
            <mxPoint x="861" y="244" as="targetPoint" />
          </mxGeometry>
        </mxCell>
        <mxCell id="U4wHOanZgRLeDE3v2Qhg-33" value="" style="endArrow=open;endSize=12;dashed=1;html=1;rounded=0;" edge="1" parent="1">
          <mxGeometry width="160" relative="1" as="geometry">
            <mxPoint x="864" y="302.0000000000002" as="sourcePoint" />
            <mxPoint x="700" y="302" as="targetPoint" />
          </mxGeometry>
        </mxCell>
        <mxCell id="U4wHOanZgRLeDE3v2Qhg-34" value="8.return result" style="text;html=1;align=center;verticalAlign=middle;resizable=0;points=[];autosize=1;strokeColor=none;fillColor=none;" vertex="1" parent="1">
          <mxGeometry x="742" y="273" width="92" height="26" as="geometry" />
        </mxCell>
        <mxCell id="U4wHOanZgRLeDE3v2Qhg-35" value="" style="endArrow=open;endSize=12;dashed=1;html=1;rounded=0;" edge="1" parent="1" source="U4wHOanZgRLeDE3v2Qhg-14">
          <mxGeometry width="160" relative="1" as="geometry">
            <mxPoint x="670" y="323.0000000000002" as="sourcePoint" />
            <mxPoint x="506" y="323" as="targetPoint" />
          </mxGeometry>
        </mxCell>
        <mxCell id="U4wHOanZgRLeDE3v2Qhg-36" value="9.return result" style="text;html=1;align=center;verticalAlign=middle;resizable=0;points=[];autosize=1;strokeColor=none;fillColor=none;" vertex="1" parent="1">
          <mxGeometry x="552" y="296" width="92" height="26" as="geometry" />
        </mxCell>
        <mxCell id="U4wHOanZgRLeDE3v2Qhg-37" value="" style="endArrow=open;endSize=12;dashed=1;html=1;rounded=0;" edge="1" parent="1" target="U4wHOanZgRLeDE3v2Qhg-11">
          <mxGeometry width="160" relative="1" as="geometry">
            <mxPoint x="491" y="339" as="sourcePoint" />
            <mxPoint x="308" y="339" as="targetPoint" />
          </mxGeometry>
        </mxCell>
        <mxCell id="U4wHOanZgRLeDE3v2Qhg-38" value="10.return result" style="text;html=1;align=center;verticalAlign=middle;resizable=0;points=[];autosize=1;strokeColor=none;fillColor=none;" vertex="1" parent="1">
          <mxGeometry x="337" y="313" width="99" height="26" as="geometry" />
        </mxCell>
        <mxCell id="U4wHOanZgRLeDE3v2Qhg-39" value="" style="endArrow=open;endSize=12;dashed=1;html=1;rounded=0;" edge="1" parent="1">
          <mxGeometry width="160" relative="1" as="geometry">
            <mxPoint x="282" y="363" as="sourcePoint" />
            <mxPoint x="91" y="363" as="targetPoint" />
          </mxGeometry>
        </mxCell>
        <mxCell id="U4wHOanZgRLeDE3v2Qhg-40" value="11.return valid view&amp;nbsp;" style="text;html=1;align=center;verticalAlign=middle;resizable=0;points=[];autosize=1;strokeColor=none;fillColor=none;" vertex="1" parent="1">
          <mxGeometry x="117" y="339" width="124" height="26" as="geometry" />
        </mxCell>
        <mxCell id="U4wHOanZgRLeDE3v2Qhg-41" value="" style="endArrow=open;endSize=12;dashed=1;html=1;rounded=0;" edge="1" parent="1">
          <mxGeometry width="160" relative="1" as="geometry">
            <mxPoint x="84" y="469" as="sourcePoint" />
            <mxPoint x="-57" y="469" as="targetPoint" />
          </mxGeometry>
        </mxCell>
        <mxCell id="U4wHOanZgRLeDE3v2Qhg-42" value="11.Display message&amp;nbsp;&lt;div&gt;add&lt;/div&gt;" style="text;html=1;align=center;verticalAlign=middle;resizable=0;points=[];autosize=1;strokeColor=none;fillColor=none;" vertex="1" parent="1">
          <mxGeometry x="-54" y="429" width="129" height="41" as="geometry" />
        </mxCell>
        <mxCell id="U4wHOanZgRLeDE3v2Qhg-43" value="" style="endArrow=none;dashed=1;html=1;dashPattern=1 3;strokeWidth=2;rounded=0;exitX=0;exitY=0;exitDx=0;exitDy=5;exitPerimeter=0;entryX=0.5;entryY=1;entryDx=0;entryDy=0;" edge="1" parent="1" source="U4wHOanZgRLeDE3v2Qhg-13" target="U4wHOanZgRLeDE3v2Qhg-4">
          <mxGeometry width="50" height="50" relative="1" as="geometry">
            <mxPoint x="293" y="29" as="sourcePoint" />
            <mxPoint x="291" y="-65" as="targetPoint" />
          </mxGeometry>
        </mxCell>
        <mxCell id="U4wHOanZgRLeDE3v2Qhg-44" value="" style="endArrow=none;dashed=1;html=1;dashPattern=1 3;strokeWidth=2;rounded=0;exitX=0.643;exitY=0.035;exitDx=0;exitDy=0;exitPerimeter=0;entryX=0.598;entryY=0.983;entryDx=0;entryDy=0;entryPerimeter=0;" edge="1" parent="1" source="U4wHOanZgRLeDE3v2Qhg-14" target="U4wHOanZgRLeDE3v2Qhg-5">
          <mxGeometry width="50" height="50" relative="1" as="geometry">
            <mxPoint x="303" y="39" as="sourcePoint" />
            <mxPoint x="301" y="-55" as="targetPoint" />
          </mxGeometry>
        </mxCell>
        <mxCell id="U4wHOanZgRLeDE3v2Qhg-45" value="" style="endArrow=none;dashed=1;html=1;dashPattern=1 3;strokeWidth=2;rounded=0;exitX=0;exitY=0;exitDx=0;exitDy=5;exitPerimeter=0;entryX=0.5;entryY=1;entryDx=0;entryDy=0;" edge="1" parent="1" source="U4wHOanZgRLeDE3v2Qhg-15" target="U4wHOanZgRLeDE3v2Qhg-6">
          <mxGeometry width="50" height="50" relative="1" as="geometry">
            <mxPoint x="705" y="217" as="sourcePoint" />
            <mxPoint x="703" y="-69" as="targetPoint" />
          </mxGeometry>
        </mxCell>
        <mxCell id="U4wHOanZgRLeDE3v2Qhg-46" value="" style="endArrow=classic;html=1;rounded=0;entryX=0;entryY=0;entryDx=0;entryDy=5;entryPerimeter=0;" edge="1" parent="1">
          <mxGeometry width="50" height="50" relative="1" as="geometry">
            <mxPoint x="-49" y="14" as="sourcePoint" />
            <mxPoint x="85" y="14" as="targetPoint" />
          </mxGeometry>
        </mxCell>
        <mxCell id="U4wHOanZgRLeDE3v2Qhg-48" value="2.Admin&amp;nbsp; add&lt;div&gt;&amp;nbsp;&lt;span style=&quot;text-wrap: wrap; background-color: initial;&quot;&gt;User&lt;/span&gt;&lt;/div&gt;" style="text;html=1;align=center;verticalAlign=middle;resizable=0;points=[];autosize=1;strokeColor=none;fillColor=none;" vertex="1" parent="1">
          <mxGeometry x="-26" y="20" width="89" height="41" as="geometry" />
        </mxCell>
        <mxCell id="Rzas0H_LwUGCBxJgMWCB-1" value="" style="endArrow=none;dashed=1;html=1;dashPattern=1 3;strokeWidth=2;rounded=0;exitX=0;exitY=1;exitDx=0;exitDy=-5;exitPerimeter=0;" edge="1" parent="1">
          <mxGeometry width="50" height="50" relative="1" as="geometry">
            <mxPoint x="84" y="496" as="sourcePoint" />
            <mxPoint x="84" y="607" as="targetPoint" />
          </mxGeometry>
        </mxCell>
        <mxCell id="Rzas0H_LwUGCBxJgMWCB-2" value="" style="endArrow=none;dashed=1;html=1;dashPattern=1 3;strokeWidth=2;rounded=0;exitX=1;exitY=1;exitDx=0;exitDy=-5;exitPerimeter=0;" edge="1" parent="1" source="U4wHOanZgRLeDE3v2Qhg-11">
          <mxGeometry width="50" height="50" relative="1" as="geometry">
            <mxPoint x="94" y="506" as="sourcePoint" />
            <mxPoint x="293" y="600" as="targetPoint" />
          </mxGeometry>
        </mxCell>
        <mxCell id="Rzas0H_LwUGCBxJgMWCB-3" value="" style="endArrow=none;dashed=1;html=1;dashPattern=1 3;strokeWidth=2;rounded=0;exitX=1;exitY=1;exitDx=0;exitDy=-5;exitPerimeter=0;" edge="1" parent="1">
          <mxGeometry width="50" height="50" relative="1" as="geometry">
            <mxPoint x="500.37" y="406" as="sourcePoint" />
            <mxPoint x="500.37" y="605" as="targetPoint" />
          </mxGeometry>
        </mxCell>
        <mxCell id="Rzas0H_LwUGCBxJgMWCB-4" value="" style="endArrow=none;dashed=1;html=1;dashPattern=1 3;strokeWidth=2;rounded=0;exitX=1;exitY=1;exitDx=0;exitDy=-5;exitPerimeter=0;" edge="1" parent="1">
          <mxGeometry width="50" height="50" relative="1" as="geometry">
            <mxPoint x="693.37" y="369" as="sourcePoint" />
            <mxPoint x="693.37" y="568" as="targetPoint" />
          </mxGeometry>
        </mxCell>
        <mxCell id="Rzas0H_LwUGCBxJgMWCB-5" value="" style="endArrow=none;dashed=1;html=1;dashPattern=1 3;strokeWidth=2;rounded=0;exitX=1;exitY=1;exitDx=0;exitDy=-5;exitPerimeter=0;" edge="1" parent="1">
          <mxGeometry width="50" height="50" relative="1" as="geometry">
            <mxPoint x="868.37" y="353" as="sourcePoint" />
            <mxPoint x="868.37" y="552" as="targetPoint" />
          </mxGeometry>
        </mxCell>
      </root>
    </mxGraphModel>
  </diagram>
</mxfile>
